# xmcd CD database file
#
# Track frame offsets:
#	150
#	12610
#	26410
#	41004
#	52346
#	65073
#	77195
#	90570
#	103298
#	115893
#	128568
#	141796
#	154294
#	167182
#	178591
#	192756
#	203165
#	213177
#	226167
#	238708
#	249930
#	262410
#	276565
#	290271
#	304667
#
# Disc length: 4236 seconds
#
# Revision: 0
# Processed by: cddbd v1.5.1PL2 Copyright (c) Steve Scherf et al.
# Submitted via: CDex 1.51
#
DISCID=76108a19
DTITLE=Various Artist - 100xNo.1 Country Hits CD1
DYEAR=2005
DGENRE=Country
TTITLE0=Floyd Tillman - I Love You So Much It Hurts
TTITLE1=Bing Crosby and Andrews Sisters - Pistol Packin' Mama
TTITLE2=Ernest Tubb - Soldiers Last Letter
TTITLE3=Floyd Tillman - They Took The Stars Out Of Heaven
TTITLE4=Al Dexter - Pistol Packin' Mama
TTITLE5=Floyd Tillman - Each Night At Nine
TTITLE6=Red Foley - Smoke On The Water
TTITLE7=Al Dexter - Rosalita
TTITLE8=Ernest Tubb - It's Been So Long, Darling
TTITLE9=Gene Autry - At Mail Call Today
TTITLE10=Spade Cooley - Shame On You
TTITLE11=Tex Ritter - You Two-Timed Me One Time Too Often
TTITLE12=Al Dexter - Wine, Women and Song
TTITLE13=Bob Wills and His Texas Playboys - New Spanish Two Step
TTITLE14=Ernest Tubb - Rainbow At Midnight
TTITLE15=Bob Wills and His Texas Cowboys - Sugar Moon
TTITLE16=Jimmie Davis - There's A New Moon Over My Shoulder
TTITLE17=Eddy Arnold - What Is A Life Without Love
TTITLE18=Al Dexter - Guitar Polka
TTITLE19=Eddy Arnold - It's A Sin
TTITLE20=Eddy Arnold - I'll Hold You In My Heart
TTITLE21=Red Foley - New Jole Blonde
TTITLE22=Eddy Arnold - What A Fool I Was
TTITLE23=Eddy Arnold - My Daddy Is Only A Picture
TTITLE24=Eddy Arnold - Anytime
EXTD=YEAR: 2005
EXTT0=
EXTT1=
EXTT2=
EXTT3=
EXTT4=
EXTT5=
EXTT6=
EXTT7=
EXTT8=
EXTT9=
EXTT10=
EXTT11=
EXTT12=
EXTT13=
EXTT14=
EXTT15=
EXTT16=
EXTT17=
EXTT18=
EXTT19=
EXTT20=
EXTT21=
EXTT22=
EXTT23=
EXTT24=
PLAYORDER=
